<svg width="40" height="40" viewBox="0 0 40 40" fill="none" xmlns="http://www.w3.org/2000/svg">
<g clip-path="url(#clip0_549_54)">
<path d="M14.2666 6.1499C12.4467 6.90321 10.793 8.00756 9.3999 9.3999" stroke="#F5F6F7" stroke-width="2" stroke-linecap="round" stroke-linejoin="round"/>
<path d="M6.15 14.2666C5.39426 16.0838 5.00351 18.0319 5 19.9999" stroke="#F5F6F7" stroke-width="2" stroke-linecap="round" stroke-linejoin="round"/>
<path d="M6.1499 25.7334C6.90321 27.5533 8.00756 29.207 9.3999 30.6001" stroke="#F5F6F7" stroke-width="2" stroke-linecap="round" stroke-linejoin="round"/>
<path d="M14.2666 33.8501C16.0838 34.6058 18.0319 34.9966 19.9999 35.0001" stroke="#F5F6F7" stroke-width="2" stroke-linecap="round" stroke-linejoin="round"/>
<path d="M25.7334 33.8501C27.5533 33.0968 29.207 31.9924 30.6001 30.6001" stroke="#F5F6F7" stroke-width="2" stroke-linecap="round" stroke-linejoin="round"/>
<path d="M33.8501 25.7333C34.6058 23.9162 34.9966 21.968 35.0001 20" stroke="#F5F6F7" stroke-width="2" stroke-linecap="round" stroke-linejoin="round"/>
<path d="M33.8501 14.2666C33.0968 12.4467 31.9924 10.793 30.6001 9.3999" stroke="#F5F6F7" stroke-width="2" stroke-linecap="round" stroke-linejoin="round"/>
<path d="M25.7333 6.15C23.9162 5.39426 21.968 5.00351 20 5" stroke="#F5F6F7" stroke-width="2" stroke-linecap="round" stroke-linejoin="round"/>
<path d="M15 19.9998L18.3333 23.3332L25 16.6665" stroke="#F5F6F7" stroke-width="2" stroke-linecap="round" stroke-linejoin="round"/>
</g>
<defs>
<clipPath id="clip0_549_54">
<rect width="40" height="40" fill="white"/>
</clipPath>
</defs>
</svg>
