<svg width="32" height="32" viewBox="0 0 32 32" fill="none" xmlns="http://www.w3.org/2000/svg">
<path d="M2.66667 7.66667H7.66667C8.10869 7.66667 8.53262 7.49107 8.84518 7.17851C9.15774 6.86595 9.33333 6.44203 9.33333 6V4.33333C9.33333 3.44928 9.68452 2.60143 10.3096 1.97631C10.9348 1.35119 11.7826 1 12.6667 1C13.5507 1 14.3986 1.35119 15.0237 1.97631C15.6488 2.60143 16 3.44928 16 4.33333V6C16 6.44203 16.1756 6.86595 16.4882 7.17851C16.8007 7.49107 17.2246 7.66667 17.6667 7.66667H22.6667C23.1087 7.66667 23.5326 7.84226 23.8452 8.15482C24.1577 8.46738 24.3333 8.89131 24.3333 9.33333V14.3333C24.3333 14.7754 24.5089 15.1993 24.8215 15.5118C25.134 15.8244 25.558 16 26 16H27.6667C28.5507 16 29.3986 16.3512 30.0237 16.9763C30.6488 17.6014 31 18.4493 31 19.3333C31 20.2174 30.6488 21.0652 30.0237 21.6904C29.3986 22.3155 28.5507 22.6667 27.6667 22.6667H26C25.558 22.6667 25.134 22.8423 24.8215 23.1548C24.5089 23.4674 24.3333 23.8913 24.3333 24.3333V29.3333C24.3333 29.7754 24.1577 30.1993 23.8452 30.5118C23.5326 30.8244 23.1087 31 22.6667 31H17.6667C17.2246 31 16.8007 30.8244 16.4882 30.5118C16.1756 30.1993 16 29.7754 16 29.3333V27.6667C16 26.7826 15.6488 25.9348 15.0237 25.3096C14.3986 24.6845 13.5507 24.3333 12.6667 24.3333C11.7826 24.3333 10.9348 24.6845 10.3096 25.3096C9.68452 25.9348 9.33333 26.7826 9.33333 27.6667V29.3333C9.33333 29.7754 9.15774 30.1993 8.84518 30.5118C8.53262 30.8244 8.10869 31 7.66667 31H2.66667C2.22464 31 1.80072 30.8244 1.48816 30.5118C1.17559 30.1993 1 29.7754 1 29.3333V24.3333C1 23.8913 1.17559 23.4674 1.48816 23.1548C1.80072 22.8423 2.22464 22.6667 2.66667 22.6667H4.33333C5.21739 22.6667 6.06523 22.3155 6.69036 21.6904C7.31548 21.0652 7.66667 20.2174 7.66667 19.3333C7.66667 18.4493 7.31548 17.6014 6.69036 16.9763C6.06523 16.3512 5.21739 16 4.33333 16H2.66667C2.22464 16 1.80072 15.8244 1.48816 15.5118C1.17559 15.1993 1 14.7754 1 14.3333V9.33333C1 8.89131 1.17559 8.46738 1.48816 8.15482C1.80072 7.84226 2.22464 7.66667 2.66667 7.66667Z" stroke="#F5F6F7" stroke-width="2" stroke-linecap="round" stroke-linejoin="round"/>
</svg>
