<svg width="40" height="40" viewBox="0 0 40 40" fill="none" xmlns="http://www.w3.org/2000/svg">
<g clip-path="url(#clip0_545_208)">
<path d="M23.3333 5V11.6667C23.3333 12.1087 23.5088 12.5326 23.8214 12.8452C24.134 13.1577 24.5579 13.3333 24.9999 13.3333H31.6666" stroke="#F5F6F7" stroke-width="2" stroke-linecap="round" stroke-linejoin="round"/>
<path d="M8.33325 13.3333V8.33333C8.33325 7.44928 8.68444 6.60143 9.30956 5.97631C9.93468 5.35119 10.7825 5 11.6666 5H23.3333L31.6666 13.3333V31.6667C31.6666 32.5507 31.3154 33.3986 30.6903 34.0237C30.0652 34.6488 29.2173 35 28.3333 35H19.9999" stroke="#F5F6F7" stroke-width="2" stroke-linecap="round" stroke-linejoin="round"/>
<path d="M5 23.3335C5 24.6596 5.52678 25.9313 6.46447 26.869C7.40215 27.8067 8.67392 28.3335 10 28.3335C11.3261 28.3335 12.5979 27.8067 13.5355 26.869C14.4732 25.9313 15 24.6596 15 23.3335C15 22.0074 14.4732 20.7356 13.5355 19.798C12.5979 18.8603 11.3261 18.3335 10 18.3335C8.67392 18.3335 7.40215 18.8603 6.46447 19.798C5.52678 20.7356 5 22.0074 5 23.3335Z" stroke="#F5F6F7" stroke-width="2" stroke-linecap="round" stroke-linejoin="round"/>
<path d="M7.5 28.3335L5 36.6668L10 34.1668L15 36.6668L12.5 28.3335" stroke="#F5F6F7" stroke-width="2" stroke-linecap="round" stroke-linejoin="round"/>
</g>
<defs>
<clipPath id="clip0_545_208">
<rect width="40" height="40" rx="20" fill="white"/>
</clipPath>
</defs>
</svg>
