<svg width="16" height="16" viewBox="0 0 16 16" fill="none" xmlns="http://www.w3.org/2000/svg">
<g clip-path="url(#clip0_456_90)">
<path d="M10.6666 6.66667C10.6666 7.02029 10.5261 7.35943 10.2761 7.60948C10.026 7.85953 9.68687 8 9.33325 8H4.55192C4.19833 8.00008 3.85924 8.1406 3.60925 8.39067L2.14125 9.85867C2.07506 9.92485 1.99072 9.96992 1.89891 9.98818C1.8071 10.0064 1.71194 9.99707 1.62546 9.96125C1.53897 9.92543 1.46505 9.86477 1.41304 9.78694C1.36103 9.70911 1.33326 9.61761 1.33325 9.524V2.66667C1.33325 2.31305 1.47373 1.97391 1.72378 1.72386C1.97382 1.47381 2.31296 1.33334 2.66659 1.33334H9.33325C9.68687 1.33334 10.026 1.47381 10.2761 1.72386C10.5261 1.97391 10.6666 2.31305 10.6666 2.66667V6.66667Z" stroke="#F5F6F7" stroke-linecap="round" stroke-linejoin="round"/>
<path d="M13.3333 6C13.6869 6 14.026 6.14048 14.2761 6.39052C14.5261 6.64057 14.6666 6.97971 14.6666 7.33333V14.1907C14.6666 14.2843 14.6388 14.3758 14.5868 14.4536C14.5348 14.5314 14.4609 14.5921 14.3744 14.6279C14.2879 14.6637 14.1927 14.6731 14.1009 14.6548C14.0091 14.6366 13.9248 14.5915 13.8586 14.5253L12.3906 13.0573C12.1406 12.8073 11.8015 12.6667 11.4479 12.6667H6.66659C6.31296 12.6667 5.97382 12.5262 5.72378 12.2761C5.47373 12.0261 5.33325 11.687 5.33325 11.3333V10.6667" stroke="#F5F6F7" stroke-linecap="round" stroke-linejoin="round"/>
</g>
<defs>
<clipPath id="clip0_456_90">
<rect width="16" height="16" fill="white"/>
</clipPath>
</defs>
</svg>
