<svg width="16" height="16" viewBox="0 0 16 16" fill="none" xmlns="http://www.w3.org/2000/svg">
<path d="M6.66675 8H9.33341" stroke="#F5F6F7" stroke-linecap="round" stroke-linejoin="round"/>
<path d="M6.66675 5.33333H9.33341" stroke="#F5F6F7" stroke-linecap="round" stroke-linejoin="round"/>
<path d="M9.33341 14V12C9.33341 11.6464 9.19294 11.3072 8.94289 11.0572C8.69284 10.8071 8.3537 10.6667 8.00008 10.6667C7.64646 10.6667 7.30732 10.8071 7.05727 11.0572C6.80722 11.3072 6.66675 11.6464 6.66675 12V14" stroke="#F5F6F7" stroke-linecap="round" stroke-linejoin="round"/>
<path d="M3.99992 6.66667H2.66659C2.31296 6.66667 1.97382 6.80714 1.72378 7.05719C1.47373 7.30724 1.33325 7.64638 1.33325 8V12.6667C1.33325 13.0203 1.47373 13.3594 1.72378 13.6095C1.97382 13.8595 2.31296 14 2.66659 14H13.3333C13.6869 14 14.026 13.8595 14.2761 13.6095C14.5261 13.3594 14.6666 13.0203 14.6666 12.6667V6C14.6666 5.64638 14.5261 5.30724 14.2761 5.05719C14.026 4.80714 13.6869 4.66667 13.3333 4.66667H11.9999" stroke="#F5F6F7" stroke-linecap="round" stroke-linejoin="round"/>
<path d="M4 14V3.33333C4 2.97971 4.14048 2.64057 4.39052 2.39052C4.64057 2.14048 4.97971 2 5.33333 2H10.6667C11.0203 2 11.3594 2.14048 11.6095 2.39052C11.8595 2.64057 12 2.97971 12 3.33333V14" stroke="#F5F6F7" stroke-linecap="round" stroke-linejoin="round"/>
</svg>
