<svg width="16" height="16" viewBox="0 0 16 16" fill="none" xmlns="http://www.w3.org/2000/svg">
<path d="M10.6667 1.33334V2.66667" stroke="#F5F6F7" stroke-linecap="round" stroke-linejoin="round"/>
<path d="M4.66675 14.6667V13.3333C4.66675 12.9797 4.80722 12.6406 5.05727 12.3905C5.30732 12.1405 5.64646 12 6.00008 12H10.0001C10.3537 12 10.6928 12.1405 10.9429 12.3905C11.1929 12.6406 11.3334 12.9797 11.3334 13.3333V14.6667" stroke="#F5F6F7" stroke-linecap="round" stroke-linejoin="round"/>
<path d="M5.33325 1.33334V2.66667" stroke="#F5F6F7" stroke-linecap="round" stroke-linejoin="round"/>
<path d="M8 9.33334C9.10457 9.33334 10 8.43791 10 7.33334C10 6.22877 9.10457 5.33334 8 5.33334C6.89543 5.33334 6 6.22877 6 7.33334C6 8.43791 6.89543 9.33334 8 9.33334Z" stroke="#F5F6F7" stroke-linecap="round" stroke-linejoin="round"/>
<path d="M12.6667 2.66666H3.33333C2.59695 2.66666 2 3.26362 2 4V13.3333C2 14.0697 2.59695 14.6667 3.33333 14.6667H12.6667C13.403 14.6667 14 14.0697 14 13.3333V4C14 3.26362 13.403 2.66666 12.6667 2.66666Z" stroke="#F5F6F7" stroke-linecap="round" stroke-linejoin="round"/>
</svg>
