<svg width="32" height="32" viewBox="0 0 32 32" fill="none" xmlns="http://www.w3.org/2000/svg">
<path d="M14.6666 13.6934L9.33325 4.45337" stroke="#F5F6F7" stroke-width="2" stroke-linecap="round" stroke-linejoin="round"/>
<path d="M14.6666 18.3066L9.33325 27.5466" stroke="#F5F6F7" stroke-width="2" stroke-linecap="round" stroke-linejoin="round"/>
<path d="M16 29.3334V26.6667" stroke="#F5F6F7" stroke-width="2" stroke-linecap="round" stroke-linejoin="round"/>
<path d="M16 2.66675V5.33341" stroke="#F5F6F7" stroke-width="2" stroke-linecap="round" stroke-linejoin="round"/>
<path d="M18.6667 16H29.3334" stroke="#F5F6F7" stroke-width="2" stroke-linecap="round" stroke-linejoin="round"/>
<path d="M22.6666 27.5467L21.3333 25.24" stroke="#F5F6F7" stroke-width="2" stroke-linecap="round" stroke-linejoin="round"/>
<path d="M22.6666 4.45337L21.3333 6.76004" stroke="#F5F6F7" stroke-width="2" stroke-linecap="round" stroke-linejoin="round"/>
<path d="M2.66675 16H5.33341" stroke="#F5F6F7" stroke-width="2" stroke-linecap="round" stroke-linejoin="round"/>
<path d="M27.5467 22.6666L25.24 21.3333" stroke="#F5F6F7" stroke-width="2" stroke-linecap="round" stroke-linejoin="round"/>
<path d="M27.5467 9.33325L25.24 10.6666" stroke="#F5F6F7" stroke-width="2" stroke-linecap="round" stroke-linejoin="round"/>
<path d="M4.45337 22.6666L6.76004 21.3333" stroke="#F5F6F7" stroke-width="2" stroke-linecap="round" stroke-linejoin="round"/>
<path d="M4.45337 9.33325L6.76004 10.6666" stroke="#F5F6F7" stroke-width="2" stroke-linecap="round" stroke-linejoin="round"/>
<path d="M15.9999 18.6666C17.4727 18.6666 18.6666 17.4727 18.6666 15.9999C18.6666 14.5272 17.4727 13.3333 15.9999 13.3333C14.5272 13.3333 13.3333 14.5272 13.3333 15.9999C13.3333 17.4727 14.5272 18.6666 15.9999 18.6666Z" stroke="#F5F6F7" stroke-width="2" stroke-linecap="round" stroke-linejoin="round"/>
<path d="M15.9999 26.6666C21.891 26.6666 26.6666 21.891 26.6666 15.9999C26.6666 10.1089 21.891 5.33325 15.9999 5.33325C10.1089 5.33325 5.33325 10.1089 5.33325 15.9999C5.33325 21.891 10.1089 26.6666 15.9999 26.6666Z" stroke="#F5F6F7" stroke-width="2" stroke-linecap="round" stroke-linejoin="round"/>
</svg>
