<svg width="32" height="32" viewBox="0 0 32 32" fill="none" xmlns="http://www.w3.org/2000/svg">
<path d="M21.3333 6.66667C22.0697 6.66667 22.6667 6.06971 22.6667 5.33333C22.6667 4.59695 22.0697 4 21.3333 4C20.597 4 20 4.59695 20 5.33333C20 6.06971 20.597 6.66667 21.3333 6.66667Z" stroke="#F5F6F7" stroke-width="2" stroke-linecap="round" stroke-linejoin="round"/>
<path d="M23.9999 25.3333L25.3333 16L17.3333 17.3333" stroke="#F5F6F7" stroke-width="2" stroke-linecap="round" stroke-linejoin="round"/>
<path d="M6.66675 10.6667L10.6667 6.66675L18.0001 10.6667L14.8534 15.3334" stroke="#F5F6F7" stroke-width="2" stroke-linecap="round" stroke-linejoin="round"/>
<path d="M5.65327 19.3333C5.27706 20.564 5.26512 21.8773 5.61889 23.1147C5.97267 24.3521 6.67704 25.4606 7.64697 26.3065C8.61691 27.1524 9.81095 27.6994 11.085 27.8816C12.359 28.0638 13.6585 27.8734 14.8266 27.3333" stroke="#F5F6F7" stroke-width="2" stroke-linecap="round" stroke-linejoin="round"/>
<path d="M18.3467 23.3333C18.7229 22.1026 18.7348 20.7892 18.3811 19.5518C18.0273 18.3144 17.3229 17.2059 16.353 16.36C15.383 15.5142 14.189 14.9671 12.915 14.7849C11.641 14.6027 10.3415 14.7932 9.17334 15.3333" stroke="#F5F6F7" stroke-width="2" stroke-linecap="round" stroke-linejoin="round"/>
</svg>
