<svg width="32" height="32" viewBox="0 0 32 32" fill="none" xmlns="http://www.w3.org/2000/svg">
<path d="M19.6 8.40012C19.3557 8.64936 19.2188 8.98445 19.2188 9.33345C19.2188 9.68246 19.3557 10.0175 19.6 10.2668L21.7333 12.4001C21.9825 12.6444 22.3176 12.7813 22.6666 12.7813C23.0156 12.7813 23.3507 12.6444 23.6 12.4001L27.7413 8.26012C28.168 7.83079 28.892 7.96679 29.052 8.55079C29.4548 10.016 29.4321 11.5655 28.9863 13.0182C28.5406 14.4709 27.6904 15.7667 26.5352 16.7538C25.3799 17.7409 23.9674 18.3786 22.463 18.5922C20.9585 18.8058 19.4244 18.5866 18.04 17.9601L7.4933 28.5068C6.96287 29.037 6.24352 29.3349 5.4935 29.3347C4.74348 29.3346 4.02423 29.0366 3.49397 28.5061C2.96372 27.9757 2.66589 27.2563 2.66602 26.5063C2.66614 25.7563 2.96421 25.037 3.49464 24.5068L14.0413 13.9601C13.4148 12.5757 13.1956 11.0416 13.4092 9.53712C13.6229 8.03267 14.2605 6.62019 15.2477 5.46494C16.2348 4.30969 17.5305 3.45947 18.9832 3.01376C20.4359 2.56804 21.9855 2.54528 23.4506 2.94812C24.0346 3.10812 24.1706 3.83079 23.7426 4.26012L19.6 8.40012Z" stroke="#F5F6F7" stroke-width="2" stroke-linecap="round" stroke-linejoin="round"/>
</svg>
