<svg width="85" height="85" viewBox="0 0 85 85" fill="none" xmlns="http://www.w3.org/2000/svg">
<path d="M20.2778 33.6111H46.9444M33.6111 20.2778V46.9444M82.5 82.5L55.8333 55.8333M2.5 33.6111C2.5 37.6967 3.30471 41.7422 4.86819 45.5168C6.43167 49.2914 8.7233 52.7211 11.6122 55.61C14.5012 58.4989 17.9308 60.7906 21.7054 62.354C25.48 63.9175 29.5255 64.7222 33.6111 64.7222C37.6967 64.7222 41.7422 63.9175 45.5168 62.354C49.2914 60.7906 52.7211 58.4989 55.61 55.61C58.4989 52.7211 60.7906 49.2914 62.354 45.5168C63.9175 41.7422 64.7222 37.6967 64.7222 33.6111C64.7222 29.5255 63.9175 25.48 62.354 21.7054C60.7906 17.9308 58.4989 14.5012 55.61 11.6122C52.7211 8.7233 49.2914 6.43167 45.5168 4.86819C41.7422 3.30471 37.6967 2.5 33.6111 2.5C29.5255 2.5 25.48 3.30471 21.7054 4.86819C17.9308 6.43167 14.5012 8.7233 11.6122 11.6122C8.7233 14.5012 6.43167 17.9308 4.86819 21.7054C3.30471 25.48 2.5 29.5255 2.5 33.6111Z" stroke="#F5F6F7" stroke-width="5" stroke-linecap="round" stroke-linejoin="round"/>
</svg>
